<svg xmlns="http://www.w3.org/2000/svg" width="32" height="32" viewBox="0 0 32 32" fill="none">
  <!-- Mid — emerald green, between tight and big -->
  <path d="M11 4C8 4 6 6 6 8v5c0 2-2 3-2 3s2 1 2 3v5c0 2 2 4 5 4" stroke="#047857" stroke-width="2" fill="none" stroke-linecap="round"/>
  <path d="M21 4c3 0 5 2 5 4v5c0 2 2 3 2 3s-2 1-2 3v5c0 2-2 4-5 4" stroke="#047857" stroke-width="2" fill="none" stroke-linecap="round"/>
  <path d="M16 6 Q7 16 16 26" fill="#047857"/>
  <path d="M16 6 Q25 16 16 26" fill="#10b981"/>
</svg>
